# xmcd CD database file
#
# Track frame offsets:
#	150
#	16077
#	28057
#	45202
#	58592
#	74525
#	90482
#	102210
#	116570
#	126810
#	144442
#	159777
#
# Disc length: 2277 seconds
#
# Revision: 0
# Processed by: cddbd v1.5.2PL0 Copyright (c) Steve Scherf et al.
# Submitted via: CDex 1.51
#
DISCID=8f08e30c
DTITLE=Fubá de Taperuá - Vai lá no meu forró
DYEAR=1900
DGENRE=Forró
TTITLE0=bela menina
TTITLE1=solidão divina
TTITLE2=é só saudade
TTITLE3=quem eu quero bem
TTITLE4=me engana que eu gosto
TTITLE5=ouro em pó
TTITLE6=tá assim de gavião
TTITLE7=a minha terra é assim
TTITLE8=vaqueiro não é toureiro
TTITLE9=quero sambar
TTITLE10=agradeço a natureza
TTITLE11=voltei pra te ver
EXTD=
EXTT0=
EXTT1=
EXTT2=
EXTT3=
EXTT4=
EXTT5=
EXTT6=
EXTT7=
EXTT8=
EXTT9=
EXTT10=
EXTT11=
PLAYORDER=
